<svg width="56" height="56" viewBox="0 0 56 56" fill="none" xmlns="http://www.w3.org/2000/svg"><g clip-path="url(#clip0_2558_433)"><path d="M56.0001 28.0001C56.0001 12.536 43.4641 0 28.0001 0C12.536 0 0 12.536 0 28.0001C0 41.9757 10.2392 53.5594 23.625 55.66V36.0938H16.5157V28.0001H23.625V21.8313C23.625 14.8138 27.8052 10.9375 34.2011 10.9375C37.2645 10.9375 40.4688 11.4844 40.4688 11.4844V18.375H36.9381C33.4598 18.375 32.3751 20.5334 32.3751 22.7477V28.0001H40.1407L38.8993 36.0938H32.375V55.66C45.7609 53.5594 56.0001 41.9757 56.0001 28.0001Z" fill="#333333"></path><path d="M38.8993 36.0938L40.1407 28H32.375V22.7476C32.375 20.5334 33.4597 18.375 36.938 18.375H40.4688V11.4844C40.4688 11.4844 37.2645 10.9375 34.201 10.9375C27.8052 10.9375 23.625 14.8137 23.625 21.8313V28H16.5156V36.0938H23.625V55.6599C25.0723 55.8867 26.5351 56.0004 28 56.0001C29.4884 56.0001 30.9495 55.8836 32.375 55.6599V36.0938H38.8993Z" fill="white"></path></g><defs><clipPath id="clip0_2558_433"><rect width="56" height="56" fill="white"></rect></clipPath></defs></svg>