<svg width="175" class="h-full w-full" height="36" viewBox="0 0 175 36" fill="none" xmlns="http://www.w3.org/2000/svg"><path d="M47.0713 20.3787V14.7834C47.0713 13.329 46.5811 12.2347 45.6033 11.4992C44.6242 10.7637 43.2481 10.396 41.4775 10.396C39.7133 10.396 38.3079 10.7867 37.2585 11.5656C36.2079 12.3458 35.6833 13.2805 35.6833 14.3709V14.5037H38.4342V14.3709C38.4342 13.8653 38.6717 13.4247 39.1453 13.0481C39.6201 12.6714 40.3707 12.4837 41.3984 12.4837C42.4617 12.4837 43.2123 12.6944 43.6515 13.1157C44.0906 13.5358 44.3102 14.0926 44.3102 14.7846V15.621H41.1609C39.3444 15.621 37.8457 15.9977 36.6688 16.751C35.4905 17.5044 34.9008 18.5272 34.9008 19.8207C34.9008 21.132 35.3731 22.1293 36.3164 22.8111C37.2598 23.4943 38.4125 23.8352 39.7784 23.8352C40.9477 23.8352 41.9396 23.6271 42.7553 23.2095C43.571 22.7933 44.1251 22.3285 44.4161 21.8139C44.4429 22.1242 44.5067 22.4434 44.6089 22.7716C44.7097 23.0997 44.8233 23.3653 44.9472 23.5696H47.6317V23.3564C47.453 22.9759 47.3164 22.529 47.2194 22.0131C47.1186 21.4998 47.0713 20.9546 47.0713 20.3787ZM44.3063 18.9294C44.3063 19.6291 43.9029 20.274 43.0962 20.8639C42.2894 21.4538 41.3907 21.7475 40.3988 21.7475C39.4682 21.7475 38.7789 21.57 38.3321 21.2163C37.884 20.8626 37.6619 20.3646 37.6619 19.7275C37.6619 19.0622 37.9798 18.5349 38.6181 18.1454C39.2563 17.7559 40.1818 17.5606 41.3958 17.5606H44.3063V18.9294Z" fill="#FFFFFF"></path><path d="M56.0889 18.7034C55.9472 19.0315 55.8374 19.4197 55.7569 19.8666C55.6778 20.3148 55.6382 20.8077 55.6382 21.3491H55.5719C55.5629 20.809 55.5233 20.3123 55.4531 19.8602C55.3816 19.4095 55.2578 19.0239 55.0804 18.7034L51.838 10.7943H48.9147L54.2302 23.2759L54.0706 24.2591C53.7081 25.4645 53.3392 26.2383 52.9677 26.5792C52.5949 26.9202 52.0869 27.0913 51.4397 27.0913C51.1729 27.0913 50.901 27.0644 50.6227 27.0108C50.3431 26.9585 50.084 26.8921 49.8453 26.8116V29.0577C50.0929 29.156 50.3521 29.2262 50.6227 29.2709C50.892 29.3156 51.2048 29.3373 51.5597 29.3373C52.6141 29.3373 53.4834 29.0117 54.1715 28.3605C54.8583 27.7093 55.4812 26.6137 56.0391 25.0712L61.6073 10.7956H59.1883L56.0889 18.7034Z" fill="#FFFFFF"></path><path d="M74.8247 20.3787V14.7834C74.8247 13.329 74.3345 12.2347 73.3567 11.4992C72.3776 10.7637 71.0015 10.396 69.2309 10.396C67.4667 10.396 66.0613 10.7867 65.0119 11.5656C63.9614 12.3458 63.4367 13.2805 63.4367 14.3709V14.5037H66.1876V14.3709C66.1876 13.8653 66.4251 13.4247 66.8987 13.0481C67.3736 12.6714 68.1242 12.4837 69.1518 12.4837C70.2151 12.4837 70.9658 12.6944 71.4049 13.1157C71.844 13.5358 72.0636 14.0926 72.0636 14.7846V15.621H68.9143C67.0978 15.621 65.6004 15.9977 64.4222 16.751C63.2439 17.5044 62.6542 18.5272 62.6542 19.8207C62.6542 21.132 63.1265 22.1293 64.0699 22.8111C65.0132 23.4943 66.1659 23.8352 67.5319 23.8352C68.7012 23.8352 69.693 23.6271 70.5087 23.2095C71.3245 22.7933 71.8785 22.3285 72.1695 21.8139C72.1963 22.1242 72.2602 22.4434 72.3623 22.7716C72.4631 23.0997 72.5768 23.3653 72.7006 23.5696H75.3851V23.3564C75.2064 22.9759 75.0698 22.529 74.9728 22.0131C74.8733 21.4998 74.8247 20.9546 74.8247 20.3787ZM72.061 18.9294C72.061 19.6291 71.6576 20.274 70.8509 20.8639C70.0441 21.4538 69.1454 21.7475 68.1535 21.7475C67.2229 21.7475 66.5336 21.57 66.0868 21.2163C65.6387 20.8626 65.4166 20.3646 65.4166 19.7275C65.4166 19.0622 65.7345 18.5349 66.3727 18.1454C67.011 17.7559 67.9365 17.5606 69.1505 17.5606H72.061V18.9294Z" fill="#FFFFFF"></path><path d="M85.771 10.5287C84.8315 10.5287 83.9903 10.7101 83.246 11.074C82.5018 11.4366 81.8725 11.955 81.3593 12.6292H81.3057L81.2138 10.7943H78.6096V23.5683H81.3874V15.1664C81.7589 14.4756 82.2401 13.9125 82.8286 13.4796C83.4184 13.0455 84.1115 12.8271 84.9094 12.8271C85.8042 12.8271 86.505 13.0646 87.0144 13.5384C87.5237 14.0134 87.779 14.8344 87.779 16.004V23.5671H90.5696V16.059C90.5696 14.021 90.1304 12.5884 89.2534 11.7648C88.3752 10.9412 87.2148 10.5287 85.771 10.5287Z" fill="#FFFFFF"></path><path d="M100.545 10.5811C98.4918 10.5811 96.8681 11.18 95.6758 12.3777C94.4835 13.5741 93.8873 15.1345 93.8873 17.0562V17.475C93.8873 19.407 94.4835 20.9724 95.6758 22.1689C96.8681 23.3653 98.4905 23.9642 100.545 23.9642C102.475 23.9642 103.946 23.479 104.96 22.5098C105.974 21.5394 106.48 20.4502 106.48 19.2448V19.1401H103.807V19.2448C103.807 19.9177 103.543 20.5102 103.015 21.021C102.485 21.533 101.663 21.7884 100.545 21.7884C99.2246 21.7884 98.2531 21.3785 97.6289 20.5574C97.0034 19.7364 96.6919 18.7085 96.6919 17.4763V17.0575C96.6919 15.8342 97.0059 14.814 97.634 13.9981C98.2633 13.1809 99.2322 12.7723 100.543 12.7723C101.661 12.7723 102.482 13.0264 103.007 13.532C103.53 14.0402 103.797 14.6289 103.806 15.3018L103.792 15.4065H106.479V15.275C106.461 14.0517 105.951 12.9651 104.946 12.0112C103.943 11.0574 102.473 10.5811 100.545 10.5811Z" fill="#FFFFFF"></path><path d="M120.642 20.4234V14.9059C120.642 13.4733 120.16 12.393 119.195 11.6677C118.228 10.9437 116.873 10.5798 115.125 10.5798C113.387 10.5798 112 10.9642 110.965 11.7329C109.93 12.5016 109.411 13.4235 109.411 14.4986V14.6288H112.124V14.4986C112.124 14.0006 112.358 13.5665 112.825 13.1936C113.293 12.8233 114.032 12.6369 115.046 12.6369C116.094 12.6369 116.834 12.845 117.267 13.2613C117.7 13.6763 117.916 14.2241 117.916 14.9059V15.7308H114.811C113.02 15.7308 111.543 16.1024 110.383 16.8455C109.221 17.5874 108.639 18.5974 108.639 19.873C108.639 21.1665 109.105 22.1497 110.034 22.8226C110.965 23.4956 112.102 23.8314 113.448 23.8314C114.6 23.8314 115.578 23.6271 116.384 23.2146C117.187 22.8048 117.733 22.3451 118.022 21.8394C118.047 22.1446 118.111 22.4587 118.211 22.7818C118.311 23.1048 118.422 23.3679 118.545 23.5683H121.191V23.3589C121.016 22.9835 120.881 22.5404 120.785 22.0348C120.69 21.5292 120.642 20.9929 120.642 20.4234ZM117.917 18.9958C117.917 19.6853 117.519 20.3212 116.723 20.9022C115.929 21.4845 115.042 21.7743 114.064 21.7743C113.147 21.7743 112.467 21.6007 112.027 21.2508C111.585 20.9009 111.364 20.4131 111.364 19.7836C111.364 19.1273 111.678 18.6076 112.308 18.2233C112.936 17.8389 113.85 17.6474 115.046 17.6474H117.916V18.9958H117.917Z" fill="#FFFFFF"></path><path d="M131.397 10.7126C130.411 10.7126 129.526 10.9042 128.743 11.2885C127.961 11.6728 127.391 12.1453 127.033 12.7046H126.994L126.917 10.9744H124.361V28.9836H127.099V22.0092C127.527 22.5685 128.115 23.0116 128.862 23.3398C129.61 23.6679 130.472 23.8314 131.45 23.8314C133.233 23.8314 134.651 23.2312 135.709 22.0297C136.765 20.8281 137.295 19.3099 137.295 17.4737V17.0549C137.295 15.22 136.76 13.7056 135.689 12.5066C134.618 11.3102 133.188 10.7126 131.397 10.7126ZM134.49 17.4737C134.49 18.6804 134.181 19.67 133.566 20.4438C132.95 21.2163 132 21.6032 130.716 21.6032C129.851 21.6032 129.105 21.3785 128.475 20.9277C127.847 20.477 127.388 19.9509 127.099 19.3469V15.1932C127.379 14.5995 127.838 14.0747 128.475 13.6201C129.112 13.1668 129.855 12.9395 130.703 12.9395C131.995 12.9395 132.95 13.3277 133.566 14.1066C134.181 14.8842 134.49 15.8674 134.49 17.0549V17.4737Z" fill="#FFFFFF"></path><path d="M143.009 10.9744H140.296V23.5696H143.009V10.9744Z" fill="#FFFFFF"></path><path d="M141.645 6.63553C141.112 6.63553 140.697 6.77982 140.399 7.06839C140.102 7.35569 139.954 7.69662 139.954 8.0899C139.954 8.51 140.105 8.85731 140.406 9.13185C140.708 9.40765 141.128 9.54556 141.671 9.54556C142.203 9.54556 142.617 9.40638 142.91 9.12546C143.203 8.8471 143.35 8.50617 143.35 8.10395C143.35 7.68385 143.203 7.33526 142.91 7.05562C142.617 6.77471 142.196 6.63553 141.645 6.63553Z" fill="#FFFFFF"></path><path d="M150.465 7.29056H147.727V10.9731H145.25V13.0966H147.727V19.7824C147.727 21.2495 148.064 22.3144 148.737 22.9733C149.408 23.6335 150.304 23.9629 151.422 23.9629C151.798 23.9629 152.153 23.9259 152.49 23.8518C152.825 23.7777 153.095 23.6922 153.296 23.5964V21.4461C153.095 21.5253 152.885 21.593 152.667 21.6504C152.449 21.7066 152.227 21.736 151.998 21.736C151.484 21.736 151.1 21.5802 150.845 21.2699C150.593 20.9597 150.465 20.4425 150.465 19.716V13.0966H153.506V10.9731H150.465V7.29056Z" fill="#FFFFFF"></path><path d="M167.549 20.4234V14.9059C167.549 13.4733 167.067 12.393 166.101 11.6677C165.135 10.9437 163.779 10.5798 162.032 10.5798C160.294 10.5798 158.907 10.9642 157.872 11.7329C156.836 12.5016 156.318 13.4235 156.318 14.4986V14.6288H159.031V14.4986C159.031 14.0006 159.264 13.5665 159.732 13.1936C160.2 12.8233 160.939 12.6369 161.953 12.6369C163.001 12.6369 163.741 12.845 164.174 13.2613C164.607 13.6763 164.822 14.2241 164.822 14.9059V15.7308H161.717C159.926 15.7308 158.449 16.1024 157.288 16.8455C156.127 17.5874 155.544 18.5974 155.544 19.873C155.544 21.1665 156.01 22.1497 156.94 22.8226C157.87 23.4956 159.008 23.8314 160.353 23.8314C161.506 23.8314 162.484 23.6271 163.289 23.2146C164.092 22.8048 164.639 22.3451 164.927 21.8394C164.953 22.1446 165.016 22.4587 165.116 22.7818C165.217 23.1048 165.328 23.3679 165.45 23.5683H168.098V23.3589C167.923 22.9835 167.788 22.5404 167.692 22.0348C167.598 21.5292 167.549 20.9929 167.549 20.4234ZM164.824 18.9958C164.824 19.6853 164.427 20.3212 163.63 20.9022C162.836 21.4845 161.949 21.7743 160.971 21.7743C160.053 21.7743 159.374 21.6007 158.934 21.2508C158.492 20.9009 158.271 20.4131 158.271 19.7836C158.271 19.1273 158.585 18.6076 159.214 18.2233C159.843 17.8389 160.757 17.6474 161.953 17.6474H164.822V18.9958H164.824Z" fill="#FFFFFF"></path><path d="M174.056 6.13626H171.329V23.5696H174.056V6.13626Z" fill="#FFFFFF"></path><path d="M12.9965 4C5.81849 4 0 9.82006 0 17C0 24.1799 5.81849 30 12.9965 30C20.1745 30 25.993 24.1799 25.993 17C25.993 9.82006 20.1732 4 12.9965 4ZM21.8302 17.023C21.8302 25.2193 21.1894 25.8603 12.9952 25.8603C4.80108 25.8603 4.16026 25.2193 4.16026 17.023C4.16026 8.82792 4.80108 8.18564 12.9952 8.18564C21.1894 8.18564 21.8302 8.82792 21.8302 17.023Z" fill="#01AB68"></path></svg>