<svg width="56" height="56" viewBox="0 0 56 56" fill="none" xmlns="http://www.w3.org/2000/svg"><rect width="56" height="56" rx="16" fill="#333333"></rect><path d="M43.7751 43.75H37.2417V33.5184C37.2417 31.0785 37.1981 27.9377 33.8437 27.9377C30.4408 27.9377 29.9201 30.5959 29.9201 33.3407V43.7492H23.3868V22.7088H29.6588V25.5842H29.7467C31.0237 23.4007 33.407 22.0917 35.9351 22.1856C42.5569 22.1856 43.7779 26.5411 43.7779 32.2076L43.7751 43.75ZM16.0149 19.8327C13.935 19.8327 12.2227 18.1214 12.2227 16.0415C12.2227 13.9615 13.9342 12.25 16.0141 12.25C18.0939 12.25 19.8052 13.9611 19.8056 16.0407C19.8056 18.1202 18.0944 19.8325 16.0149 19.8327ZM19.2815 43.75H12.7414V22.7088H19.2815V43.75Z" fill="white"></path></svg>