<svg width="56" height="56" viewBox="0 0 56 56" fill="none" xmlns="http://www.w3.org/2000/svg"><rect width="56" height="56" rx="16" fill="#333333"></rect><path fill-rule="evenodd" clip-rule="evenodd" d="M39.4414 18.6586C39.4414 19.8185 38.5011 20.7586 37.3414 20.7586C36.1818 20.7586 35.2414 19.8185 35.2414 18.6586C35.2414 17.4986 36.1818 16.5586 37.3414 16.5586C38.5014 16.5586 39.4414 17.4986 39.4414 18.6586ZM28 33.8332C24.7784 33.8332 22.1668 31.2216 22.1668 28C22.1668 24.7784 24.7784 22.1668 28 22.1668C31.2216 22.1668 33.8332 24.7784 33.8332 28C33.8332 31.2216 31.2216 33.8332 28 33.8332ZM28 19.0135C23.0368 19.0135 19.0135 23.0368 19.0135 28C19.0135 32.9632 23.0368 36.9865 28 36.9865C32.9632 36.9865 36.9865 32.9632 36.9865 28C36.9865 23.0368 32.9632 19.0135 28 19.0135ZM28 13.6533C32.6728 13.6533 33.2262 13.6711 35.0714 13.7553C36.7776 13.8332 37.7043 14.1181 38.3209 14.3579C39.1377 14.6754 39.7206 15.0546 40.3331 15.6671C40.9456 16.2794 41.3249 16.8623 41.6423 17.6794C41.8819 18.296 42.1671 19.2227 42.245 20.9289C42.3292 22.7743 42.347 23.3278 42.347 28.0005C42.347 32.6733 42.3292 33.2268 42.245 35.0719C42.1671 36.7782 41.8821 37.7048 41.6423 38.3214C41.3249 39.1382 40.9456 39.7212 40.3331 40.3337C39.7209 40.9462 39.1379 41.3254 38.3209 41.6429C37.7043 41.8824 36.7776 42.1676 35.0714 42.2455C33.2262 42.3298 32.6728 42.3475 28 42.3475C23.327 42.3475 22.7735 42.3298 20.9284 42.2455C19.2221 42.1676 18.2954 41.8827 17.6788 41.6429C16.8621 41.3254 16.2791 40.9462 15.6666 40.3337C15.0544 39.7214 14.6748 39.1385 14.3574 38.3214C14.1179 37.7048 13.8327 36.7782 13.7547 35.0719C13.6705 33.2265 13.6527 32.673 13.6527 28.0005C13.6527 23.3278 13.6705 22.7743 13.7547 20.9289C13.8327 19.2227 14.1176 18.296 14.3574 17.6794C14.6748 16.8626 15.0541 16.2796 15.6666 15.6671C16.2788 15.0546 16.8618 14.6754 17.6788 14.3579C18.2954 14.1184 19.2221 13.8332 20.9284 13.7553C22.7738 13.6711 23.3272 13.6533 28 13.6533ZM28 10.5C23.2474 10.5 22.6513 10.5202 20.7848 10.6053C18.9221 10.6903 17.6498 10.9862 16.537 11.4187C15.3861 11.8658 14.4102 12.4644 13.4373 13.4373C12.4644 14.4102 11.8658 15.3861 11.4187 16.537C10.9862 17.6501 10.6903 18.9221 10.6053 20.7848C10.5202 22.6513 10.5 23.2474 10.5 28C10.5 32.7526 10.5202 33.3487 10.6053 35.2152C10.6903 37.0779 10.9862 38.3499 11.4187 39.463C11.8658 40.6139 12.4644 41.5898 13.4373 42.5627C14.4102 43.5356 15.3861 44.1339 16.537 44.5812C17.6501 45.0138 18.9221 45.3097 20.7848 45.3947C22.6513 45.4798 23.2474 45.5 28 45.5C32.7526 45.5 33.3487 45.4798 35.2152 45.3947C37.0779 45.3097 38.3499 45.0138 39.463 44.5812C40.6139 44.1339 41.5898 43.5356 42.5627 42.5627C43.5356 41.5898 44.1339 40.6139 44.5812 39.463C45.0138 38.3499 45.3097 37.0779 45.3947 35.2152C45.4798 33.3487 45.5 32.7526 45.5 28C45.5 23.2474 45.4798 22.6513 45.3947 20.7848C45.3097 18.9221 45.0138 17.6501 44.5812 16.537C44.1339 15.3861 43.5356 14.4102 42.5627 13.4373C41.5898 12.4644 40.6139 11.8661 39.463 11.4187C38.3499 10.9862 37.0779 10.6903 35.2152 10.6053C33.3487 10.5202 32.7526 10.5 28 10.5Z" fill="white"></path></svg>