<svg width="24" height="24" viewBox="0 0 24 24" fill="none" xmlns="http://www.w3.org/2000/svg"><path fill-rule="evenodd" clip-rule="evenodd" d="M12.3091 0C5.85201 0 0.617682 5.23411 0.617682 11.6912C0.617682 13.8998 1.23066 15.9654 2.29526 17.7276L0.185303 24L6.65814 21.9275C8.333 22.8538 10.2592 23.3817 12.3091 23.3817C18.7657 23.3817 24 18.1478 24 11.6912C24 5.23411 18.7657 0 12.3091 0ZM12.3091 21.5199C10.3124 21.5199 8.4534 20.921 6.90124 19.8943L3.12396 21.104L4.35159 17.4537C3.17496 15.8333 2.47973 13.8422 2.47973 11.6909C2.47973 6.27111 6.88912 1.86183 12.3091 1.86183C17.7287 1.86183 22.1382 6.27111 22.1382 11.6909C22.1382 17.1106 17.7287 21.5199 12.3091 21.5199Z" fill="#4AC14B"></path><path fill-rule="evenodd" clip-rule="evenodd" d="M9.56739 6.85554C9.37801 6.39913 9.23295 6.38366 8.94041 6.36976C8.84007 6.36495 8.73127 6.36035 8.61223 6.36035C8.23535 6.36035 7.84457 6.47135 7.60909 6.71225C7.32251 7.00542 6.60596 7.69208 6.60596 9.10199C6.60596 10.5121 7.63292 11.8747 7.776 12.0659C7.9195 12.257 9.77893 15.1929 12.6719 16.3916C14.93 17.3269 15.6004 17.2436 16.1156 17.1309C16.8652 16.9673 17.8064 16.4152 18.0452 15.7463C18.2841 15.077 18.2841 14.5033 18.2125 14.3842C18.1408 14.2645 17.9497 14.1931 17.6631 14.0494C17.3766 13.9061 15.9674 13.2129 15.7047 13.1175C15.442 13.0219 15.1991 13.0511 14.9971 13.3306C14.7182 13.7165 14.45 14.1132 14.2279 14.3483C14.0536 14.5329 13.7731 14.5586 13.5319 14.4561C13.2147 14.321 12.3218 14.0098 11.227 13.0337C10.3752 12.2743 9.79994 11.3362 9.63272 11.0492C9.46549 10.7626 9.61798 10.5915 9.74685 10.4356C9.8938 10.2576 10.0294 10.1298 10.1726 9.96267C10.3159 9.79524 10.396 9.70609 10.4915 9.51462C10.587 9.32356 10.5228 9.12634 10.4511 8.98284C10.3792 8.83924 9.80548 7.42954 9.56739 6.85554Z" fill="#4AC14B"></path></svg>